<mxfile host="app.diagrams.net" modified="2023-10-06T11:23:46.156Z" agent="Mozilla/5.0 (Windows NT 10.0; Win64; x64; rv:109.0) Gecko/20100101 Firefox/109.0" etag="_c_PABdbCPyU1bjLlOFA" version="22.0.3" type="github">
  <diagram id="C5RBs43oDa-KdzZeNtuy" name="Page-1">
    <mxGraphModel dx="1434" dy="754" grid="1" gridSize="10" guides="1" tooltips="1" connect="1" arrows="1" fold="1" page="1" pageScale="1" pageWidth="827" pageHeight="1169" math="0" shadow="0">
      <root>
        <mxCell id="WIyWlLk6GJQsqaUBKTNV-0" />
        <mxCell id="WIyWlLk6GJQsqaUBKTNV-1" parent="WIyWlLk6GJQsqaUBKTNV-0" />
        <mxCell id="9b3w-Y8DVjBkxMpUG1yq-1" value="" style="edgeStyle=orthogonalEdgeStyle;rounded=0;orthogonalLoop=1;jettySize=auto;html=1;" edge="1" parent="WIyWlLk6GJQsqaUBKTNV-1" source="WIyWlLk6GJQsqaUBKTNV-3" target="9b3w-Y8DVjBkxMpUG1yq-0">
          <mxGeometry relative="1" as="geometry" />
        </mxCell>
        <mxCell id="WIyWlLk6GJQsqaUBKTNV-3" value="start" style="rounded=1;whiteSpace=wrap;html=1;fontSize=12;glass=0;strokeWidth=1;shadow=0;" parent="WIyWlLk6GJQsqaUBKTNV-1" vertex="1">
          <mxGeometry x="105" y="110" width="120" height="40" as="geometry" />
        </mxCell>
        <mxCell id="9b3w-Y8DVjBkxMpUG1yq-17" value="" style="edgeStyle=orthogonalEdgeStyle;rounded=0;orthogonalLoop=1;jettySize=auto;html=1;" edge="1" parent="WIyWlLk6GJQsqaUBKTNV-1" source="9b3w-Y8DVjBkxMpUG1yq-0" target="9b3w-Y8DVjBkxMpUG1yq-5">
          <mxGeometry relative="1" as="geometry" />
        </mxCell>
        <mxCell id="9b3w-Y8DVjBkxMpUG1yq-0" value="&lt;div&gt;array_1 = [...]&lt;/div&gt;&lt;div&gt;array_2 = [...]&lt;/div&gt;&lt;div&gt;array_3 = [...]&lt;br&gt;&lt;/div&gt;&lt;div&gt;text = &quot;...&quot;&lt;/div&gt;&lt;div&gt;word = &#39;...&#39;&lt;br&gt;&lt;/div&gt;&lt;div&gt;index = 0&lt;/div&gt;&lt;div&gt;array.length&lt;/div&gt;&lt;div&gt;word.length&lt;br&gt;&lt;/div&gt;" style="shape=parallelogram;perimeter=parallelogramPerimeter;whiteSpace=wrap;html=1;fixedSize=1;" vertex="1" parent="WIyWlLk6GJQsqaUBKTNV-1">
          <mxGeometry x="40" y="230" width="250" height="130" as="geometry" />
        </mxCell>
        <mxCell id="9b3w-Y8DVjBkxMpUG1yq-20" value="" style="edgeStyle=orthogonalEdgeStyle;rounded=0;orthogonalLoop=1;jettySize=auto;html=1;" edge="1" parent="WIyWlLk6GJQsqaUBKTNV-1" source="9b3w-Y8DVjBkxMpUG1yq-3" target="9b3w-Y8DVjBkxMpUG1yq-9">
          <mxGeometry relative="1" as="geometry" />
        </mxCell>
        <mxCell id="9b3w-Y8DVjBkxMpUG1yq-3" value="text = text + array[index]" style="rounded=0;whiteSpace=wrap;html=1;" vertex="1" parent="WIyWlLk6GJQsqaUBKTNV-1">
          <mxGeometry x="87.5" y="560" width="155" height="50" as="geometry" />
        </mxCell>
        <mxCell id="9b3w-Y8DVjBkxMpUG1yq-18" value="" style="edgeStyle=orthogonalEdgeStyle;rounded=0;orthogonalLoop=1;jettySize=auto;html=1;" edge="1" parent="WIyWlLk6GJQsqaUBKTNV-1" source="9b3w-Y8DVjBkxMpUG1yq-5" target="9b3w-Y8DVjBkxMpUG1yq-6">
          <mxGeometry relative="1" as="geometry" />
        </mxCell>
        <mxCell id="9b3w-Y8DVjBkxMpUG1yq-19" value="" style="edgeStyle=orthogonalEdgeStyle;rounded=0;orthogonalLoop=1;jettySize=auto;html=1;" edge="1" parent="WIyWlLk6GJQsqaUBKTNV-1" source="9b3w-Y8DVjBkxMpUG1yq-5" target="9b3w-Y8DVjBkxMpUG1yq-3">
          <mxGeometry relative="1" as="geometry" />
        </mxCell>
        <mxCell id="9b3w-Y8DVjBkxMpUG1yq-5" value="index &amp;lt; array_1.length" style="rhombus;whiteSpace=wrap;html=1;" vertex="1" parent="WIyWlLk6GJQsqaUBKTNV-1">
          <mxGeometry x="84.99999999999999" y="420" width="160" height="90" as="geometry" />
        </mxCell>
        <mxCell id="9b3w-Y8DVjBkxMpUG1yq-27" value="" style="edgeStyle=orthogonalEdgeStyle;rounded=0;orthogonalLoop=1;jettySize=auto;html=1;" edge="1" parent="WIyWlLk6GJQsqaUBKTNV-1" source="9b3w-Y8DVjBkxMpUG1yq-6" target="9b3w-Y8DVjBkxMpUG1yq-7">
          <mxGeometry relative="1" as="geometry" />
        </mxCell>
        <mxCell id="9b3w-Y8DVjBkxMpUG1yq-6" value="array_2 = text.Split" style="rounded=0;whiteSpace=wrap;html=1;" vertex="1" parent="WIyWlLk6GJQsqaUBKTNV-1">
          <mxGeometry x="299" y="422.5" width="140" height="85" as="geometry" />
        </mxCell>
        <mxCell id="9b3w-Y8DVjBkxMpUG1yq-28" value="" style="edgeStyle=orthogonalEdgeStyle;rounded=0;orthogonalLoop=1;jettySize=auto;html=1;" edge="1" parent="WIyWlLk6GJQsqaUBKTNV-1" source="9b3w-Y8DVjBkxMpUG1yq-7" target="9b3w-Y8DVjBkxMpUG1yq-14">
          <mxGeometry relative="1" as="geometry" />
        </mxCell>
        <mxCell id="9b3w-Y8DVjBkxMpUG1yq-29" value="" style="edgeStyle=orthogonalEdgeStyle;rounded=0;orthogonalLoop=1;jettySize=auto;html=1;" edge="1" parent="WIyWlLk6GJQsqaUBKTNV-1" source="9b3w-Y8DVjBkxMpUG1yq-7" target="9b3w-Y8DVjBkxMpUG1yq-15">
          <mxGeometry relative="1" as="geometry" />
        </mxCell>
        <mxCell id="9b3w-Y8DVjBkxMpUG1yq-7" value="index &amp;lt; array_2.length" style="rhombus;whiteSpace=wrap;html=1;" vertex="1" parent="WIyWlLk6GJQsqaUBKTNV-1">
          <mxGeometry x="489" y="425" width="161" height="80" as="geometry" />
        </mxCell>
        <mxCell id="9b3w-Y8DVjBkxMpUG1yq-32" value="" style="edgeStyle=orthogonalEdgeStyle;rounded=0;orthogonalLoop=1;jettySize=auto;html=1;" edge="1" parent="WIyWlLk6GJQsqaUBKTNV-1" source="9b3w-Y8DVjBkxMpUG1yq-8" target="9b3w-Y8DVjBkxMpUG1yq-12">
          <mxGeometry relative="1" as="geometry" />
        </mxCell>
        <mxCell id="9b3w-Y8DVjBkxMpUG1yq-38" value="" style="edgeStyle=orthogonalEdgeStyle;rounded=0;orthogonalLoop=1;jettySize=auto;html=1;" edge="1" parent="WIyWlLk6GJQsqaUBKTNV-1" source="9b3w-Y8DVjBkxMpUG1yq-8" target="9b3w-Y8DVjBkxMpUG1yq-11">
          <mxGeometry relative="1" as="geometry" />
        </mxCell>
        <mxCell id="9b3w-Y8DVjBkxMpUG1yq-8" value="word.length &amp;lt;= 3" style="rhombus;whiteSpace=wrap;html=1;" vertex="1" parent="WIyWlLk6GJQsqaUBKTNV-1">
          <mxGeometry x="504.5" y="810" width="130" height="80" as="geometry" />
        </mxCell>
        <mxCell id="9b3w-Y8DVjBkxMpUG1yq-26" style="edgeStyle=orthogonalEdgeStyle;rounded=0;orthogonalLoop=1;jettySize=auto;html=1;entryX=0;entryY=0.5;entryDx=0;entryDy=0;" edge="1" parent="WIyWlLk6GJQsqaUBKTNV-1" source="9b3w-Y8DVjBkxMpUG1yq-9" target="9b3w-Y8DVjBkxMpUG1yq-5">
          <mxGeometry relative="1" as="geometry">
            <Array as="points">
              <mxPoint x="40" y="690" />
              <mxPoint x="40" y="465" />
            </Array>
          </mxGeometry>
        </mxCell>
        <mxCell id="9b3w-Y8DVjBkxMpUG1yq-9" value="index = index + 1" style="rounded=0;whiteSpace=wrap;html=1;" vertex="1" parent="WIyWlLk6GJQsqaUBKTNV-1">
          <mxGeometry x="105" y="660" width="120" height="60" as="geometry" />
        </mxCell>
        <mxCell id="9b3w-Y8DVjBkxMpUG1yq-41" style="edgeStyle=orthogonalEdgeStyle;rounded=0;orthogonalLoop=1;jettySize=auto;html=1;" edge="1" parent="WIyWlLk6GJQsqaUBKTNV-1" source="9b3w-Y8DVjBkxMpUG1yq-11">
          <mxGeometry relative="1" as="geometry">
            <mxPoint x="460" y="470" as="targetPoint" />
            <Array as="points">
              <mxPoint x="400" y="760" />
              <mxPoint x="461" y="760" />
            </Array>
          </mxGeometry>
        </mxCell>
        <mxCell id="9b3w-Y8DVjBkxMpUG1yq-11" value="index = index + 1" style="rounded=0;whiteSpace=wrap;html=1;" vertex="1" parent="WIyWlLk6GJQsqaUBKTNV-1">
          <mxGeometry x="340" y="820" width="120" height="60" as="geometry" />
        </mxCell>
        <mxCell id="9b3w-Y8DVjBkxMpUG1yq-40" style="edgeStyle=orthogonalEdgeStyle;rounded=0;orthogonalLoop=1;jettySize=auto;html=1;entryX=0.5;entryY=1;entryDx=0;entryDy=0;" edge="1" parent="WIyWlLk6GJQsqaUBKTNV-1" source="9b3w-Y8DVjBkxMpUG1yq-12" target="9b3w-Y8DVjBkxMpUG1yq-11">
          <mxGeometry relative="1" as="geometry">
            <Array as="points">
              <mxPoint x="745" y="930" />
              <mxPoint x="400" y="930" />
            </Array>
          </mxGeometry>
        </mxCell>
        <mxCell id="9b3w-Y8DVjBkxMpUG1yq-12" value="&lt;div&gt;array_3[index] = word&lt;/div&gt;&lt;div&gt;index = index +1&lt;br&gt;&lt;/div&gt;" style="rounded=0;whiteSpace=wrap;html=1;" vertex="1" parent="WIyWlLk6GJQsqaUBKTNV-1">
          <mxGeometry x="670" y="820" width="150" height="60" as="geometry" />
        </mxCell>
        <mxCell id="9b3w-Y8DVjBkxMpUG1yq-31" value="" style="edgeStyle=orthogonalEdgeStyle;rounded=0;orthogonalLoop=1;jettySize=auto;html=1;" edge="1" parent="WIyWlLk6GJQsqaUBKTNV-1" source="9b3w-Y8DVjBkxMpUG1yq-14" target="9b3w-Y8DVjBkxMpUG1yq-8">
          <mxGeometry relative="1" as="geometry" />
        </mxCell>
        <mxCell id="9b3w-Y8DVjBkxMpUG1yq-14" value="word = array_2[index]" style="rounded=0;whiteSpace=wrap;html=1;" vertex="1" parent="WIyWlLk6GJQsqaUBKTNV-1">
          <mxGeometry x="502" y="650" width="135" height="60" as="geometry" />
        </mxCell>
        <mxCell id="9b3w-Y8DVjBkxMpUG1yq-30" value="" style="edgeStyle=orthogonalEdgeStyle;rounded=0;orthogonalLoop=1;jettySize=auto;html=1;" edge="1" parent="WIyWlLk6GJQsqaUBKTNV-1" source="9b3w-Y8DVjBkxMpUG1yq-15" target="9b3w-Y8DVjBkxMpUG1yq-16">
          <mxGeometry relative="1" as="geometry" />
        </mxCell>
        <mxCell id="9b3w-Y8DVjBkxMpUG1yq-15" value="print array_3" style="shape=document;whiteSpace=wrap;html=1;boundedLbl=1;" vertex="1" parent="WIyWlLk6GJQsqaUBKTNV-1">
          <mxGeometry x="690" y="425" width="120" height="80" as="geometry" />
        </mxCell>
        <mxCell id="9b3w-Y8DVjBkxMpUG1yq-16" value="end" style="rounded=1;whiteSpace=wrap;html=1;" vertex="1" parent="WIyWlLk6GJQsqaUBKTNV-1">
          <mxGeometry x="690" y="570" width="120" height="60" as="geometry" />
        </mxCell>
        <mxCell id="9b3w-Y8DVjBkxMpUG1yq-21" value="Yes" style="text;html=1;align=center;verticalAlign=middle;resizable=0;points=[];autosize=1;strokeColor=none;fillColor=none;" vertex="1" parent="WIyWlLk6GJQsqaUBKTNV-1">
          <mxGeometry x="160" y="518" width="40" height="30" as="geometry" />
        </mxCell>
        <mxCell id="9b3w-Y8DVjBkxMpUG1yq-22" value="No" style="text;html=1;align=center;verticalAlign=middle;resizable=0;points=[];autosize=1;strokeColor=none;fillColor=none;" vertex="1" parent="WIyWlLk6GJQsqaUBKTNV-1">
          <mxGeometry x="250" y="438" width="40" height="30" as="geometry" />
        </mxCell>
        <mxCell id="9b3w-Y8DVjBkxMpUG1yq-34" value="No" style="text;html=1;align=center;verticalAlign=middle;resizable=0;points=[];autosize=1;strokeColor=none;fillColor=none;" vertex="1" parent="WIyWlLk6GJQsqaUBKTNV-1">
          <mxGeometry x="644.5" y="438" width="40" height="30" as="geometry" />
        </mxCell>
        <mxCell id="9b3w-Y8DVjBkxMpUG1yq-35" value="Yes" style="text;html=1;align=center;verticalAlign=middle;resizable=0;points=[];autosize=1;strokeColor=none;fillColor=none;" vertex="1" parent="WIyWlLk6GJQsqaUBKTNV-1">
          <mxGeometry x="570" y="560" width="40" height="30" as="geometry" />
        </mxCell>
        <mxCell id="9b3w-Y8DVjBkxMpUG1yq-37" value="Yes" style="text;html=1;align=center;verticalAlign=middle;resizable=0;points=[];autosize=1;strokeColor=none;fillColor=none;" vertex="1" parent="WIyWlLk6GJQsqaUBKTNV-1">
          <mxGeometry x="630" y="820" width="40" height="30" as="geometry" />
        </mxCell>
        <mxCell id="9b3w-Y8DVjBkxMpUG1yq-39" value="No" style="text;html=1;align=center;verticalAlign=middle;resizable=0;points=[];autosize=1;strokeColor=none;fillColor=none;" vertex="1" parent="WIyWlLk6GJQsqaUBKTNV-1">
          <mxGeometry x="470" y="818" width="40" height="30" as="geometry" />
        </mxCell>
      </root>
    </mxGraphModel>
  </diagram>
</mxfile>
